<svg viewBox="0 0 512 512" xmlns="http://www.w3.org/2000/svg"><g fill="#fff"><path d="m256 28c-125.92 0-228 102.08-228 228s102.08 228 228 228 228-102.08 228-228-102.08-228-228-228zm94.87 205.11-105.41 90.35a29.12 29.12 0 0 1 -40.81-1l-45.18-45.18a30.13 30.13 0 0 1 42.62-42.61l25.45 25.45 84.18-72.14a30.12 30.12 0 0 1 39.15 45.18z"/><path d="m256 512c-141.39 0-256-114.61-256-256s114.61-256 256-256 256 114.61 256 256-114.61 256-256 256zm0-451.76c-108.12 0-195.76 87.64-195.76 195.76s87.64 195.77 195.76 195.77 195.77-87.65 195.77-195.77-87.65-195.76-195.77-195.76z"/></g></svg>